<svg id="Capa_1" enable-background="new 0 0 512 512" height="512" viewBox="0 0 512 512" width="512" xmlns="http://www.w3.org/2000/svg"><g><path d="m392 402.271v-146.271c0-74.99-61.009-136-136-136s-136 61.01-136 136v146.271c-19.12 6.145-33 24.093-33 45.229v64.5h338v-64.5c0-21.136-13.88-39.084-33-45.229zm-242-35.271h212v33h-212zm106-217c58.449 0 106 47.552 106 106v81h-212v-81c0-58.448 47.551-106 106-106zm139 332h-278v-34.5c0-9.649 7.851-17.5 17.5-17.5h243c9.649 0 17.5 7.851 17.5 17.5z"/><path d="m241 0h30v72.033h-30z"/><path d="m305.354 34.676h72.033v30h-72.033z" transform="matrix(.372 -.928 .928 .372 168.35 348.115)"/><path d="m376.269 81.01h72.033v30h-72.033z" transform="matrix(.674 -.739 .739 .674 63.554 335.976)"/><path d="m155.63 13.66h30v72.033h-30z" transform="matrix(.928 -.372 .372 .928 -6.238 66.996)"/><path d="m84.714 59.994h30v72.033h-30z" transform="matrix(.739 -.674 .674 .739 -38.658 92.251)"/><path d="m241 183h30v81.333h-30z"/><path d="m241 285h30v30h-30z"/></g></svg>