<?xml version="1.0" encoding="utf-8"?>
<!-- Svg Vector Icons : http://www.onlinewebfonts.com/icon -->
<!DOCTYPE svg PUBLIC "-//W3C//DTD SVG 1.1//EN" "http://www.w3.org/Graphics/SVG/1.1/DTD/svg11.dtd">
<svg version="1.1" xmlns="http://www.w3.org/2000/svg" xmlns:xlink="http://www.w3.org/1999/xlink" x="0px" y="0px" viewBox="0 0 1000 1000" enable-background="new 0 0 1000 1000" xml:space="preserve">
<metadata> Svg Vector Icons : http://www.onlinewebfonts.com/icon </metadata>
<g><g id="_x33_e91140ac1bfb9903b91c1b0ca093d8e"><path d="M464.4,254.3c0-0.1,0-0.1,0-0.1S464.4,254.2,464.4,254.3z M820.5,543.3c12.8,9.2,23.1,16,23.1,16S833.4,551.5,820.5,543.3z M398.9,379.9l0.3,0.2c0,0,0-0.1,0-0.1L398.9,379.9z M962.7,349.4C980.4,331.8,990,317,990,317s-54.2,62.4-97.6,55.1c32.7-26.3,56.2-70.2,56.2-70.2s-0.6,0.6-1.6,1.6c5-8,7.9-13.3,7.9-13.3s-71.7,74.1-124.9,68.9c22-21.2,37.9-47.2,47.7-66.4c12.3-21.7,18.4-38.6,18.4-38.6s-54.2,83.6-92.6,97.2c17.3-18.7,29.7-39.2,37.7-54.9c12.3-21.5,17.9-38.2,17.9-38.2s-44.1,64.7-81.8,77.5c20.1-20.4,30.2-36.8,35.3-47.8c10.7-17.6,11.4-27.6,11.4-27.6S756,348.4,725,340.8c25.3-30.4,43.2-63.7,48.1-73.3c4.9-8.8,7.7-14.4,7.7-14.4s-60.8,82.4-77.3,69c-3.3-0.6-3.1-4.2-1.2-8.9c6-9.5,13.4-18.6,13.4-18.6s-2.2,2-5.7,4.8c5.7-8.6,12-16.5,12-16.5s-28,24.9-42.1,26c17.9-19.9,38.9-56.6,38.9-56.6s-0.9,1-2.4,2.7c5.2-8.4,8.6-14.3,8.6-14.3s-61.8,71.1-77.3,62.9l29.8-60.5c0,0-29,58.7-68.2,50.6c5-7.5,8.8-14.5,11.6-20.1c8.7-14.8,12.3-25.7,12.3-25.7s-30.8,49.6-69,36.2c-2.3-0.8-2.7-2.9-2-5.6c3.4-4.8,6.8-8.7,6.8-8.7s-2,2-5.2,4.7c3.7-7.4,11.5-16.3,11.5-16.3S550,283,532.5,279.9c-17.5-3.1,1-35,1-35s-30.9,48.4-37.1,46.4c-6.2-2.1,3.1-34,3.1-34s-22.7,37.1-35,35c-11.9-2-0.8-35.6,0-38c-0.5,1.4-4.3,12.6-9.3,22.4c1.4-5.7,2.9-10.2,3.1-10.8c-0.2,0.7-3.1,9.1-7.1,17.8c-3.4,5.1-7,8.5-10.3,7.6c-10.3-3.1-12.4-26.8-12.4-26.8s-1,11.1-4.8,20.8c-1.2-5-1.5-9.2-1.5-9.2s-0.9,9.8-4.1,19c-2,2.2-4.4,3.8-7.1,4.4c-111.3,21.6-233.9,69-387.5,222.6c4.5-2.4,8.8-4.8,13.1-7.3c-6.4,6.2-12.9,12.4-19.4,19c106.8-57.5,166.2-135.1,298.2-176.3c-3.8,7.9-6,17-6,27.3c0,66.2,39.5,123.1,96.3,148.6c0-0.2,0.1-0.4,0.1-0.5c-9.5-9.5-17.5-20.3-23.7-32.2c-1.2,0.2-2.3,0.3-3.6,0.3c-12.9,0-23.4-10.5-23.4-23.4c0-9.3,5.4-17.2,13.2-21c-1.8-14.4-1.2-29.3,2.2-44.2c1-4.3,2.1-8.4,3.5-12.5c-10.6-15.5-17.9-33.4-20.9-52.6c1.6-0.4,3.3-0.8,5-1.1c4.7,14.8,11.8,28.7,20.9,41.1c4.4-9.8,9.9-18.8,16.4-27c-0.7-1.9-1.1-4-1.1-6.2c0-7.8,5-14.3,12-16.7c2.2-0.3,4.5-0.6,6.7-0.9c2,0.1,3.8,0.5,5.6,1.2c1-0.8,2.1-1.5,3.2-2.3c9.5-1.2,19.3-2.1,29.4-3c-8.1,4.2-15.7,9.2-22.7,14.9c0.9,2.1,1.4,4.5,1.4,6.9c0,2.8-0.7,5.4-1.8,7.7l35.2,25.6c0.5-0.3,1-0.6,1.5-1l-14.4-50.6l25.3,45.3c0.9-0.3,1.7-0.6,2.6-0.9l-0.8-49.8c0,0,0.1,0,0.1,0l16.1,47.1l19.5-46.9l0.7,51.5c0.2,0.1,0.4,0.2,0.7,0.3l28.9-40.8l-14.8,49.7c0.2,0.1,0.3,0.3,0.5,0.4l42.3-28.1l-30.8,42.7c0,0.1,0.1,0.2,0.2,0.3l38.7-13.9c0.5-0.6,1-1.2,1.5-1.8c-2.3-2.8-3.7-6.3-3.7-10.1c0-8.9,7.2-16.1,16.1-16.1c1.3,0,2.5,0.2,3.7,0.5c4.4-9.1,7.8-18.7,10.2-28.5c1.1,0.2,2.3,0.4,3.4,0.6c-0.9,11-3.1,21.6-6.5,31.7c3.3,2.9,5.4,7.2,5.4,11.9c0,8.9-7.2,16.1-16.1,16.1c-0.9,0-1.8-0.1-2.6-0.3c-6.1,9.5-13.4,18.2-21.7,25.8l26.3,1.3l-39.8,9.5c-1.2,0.9-2.5,1.7-3.7,2.6c23.1,3.6,44.8,13.4,62.8,28.2c13.1-23.4,20.6-50.4,20.6-79.2c0-20.4-8.5-35.7-21.4-47.2c107.7,19,169.9,65.1,200.6,77.6c-6.1,1.9-11.2,6.4-14.3,14.8C751.9,521.2,651.5,572.2,534,589.2c-117.5,17-204-7.7-275.1-27.7C165.4,535.1,91.1,582,10,541.3c11.3,9,23.7,17.8,45.2,23.4c-13.9-2.6-27.9-7-42.1-14.1c18.8,14.9,40.2,29.4,102,29.6c20.1,0.1,82.7-3,98.7,6.3c-5,18-43,53.8-43,53.8s17.3-14.6,37.6-29c-12.8,17.8-34.5,38.2-34.5,38.2s80.6-68.1,97.9-54.7c-0.9,19-26.8,54.7-26.8,54.7s11.5-15.6,25.9-30.1c-7.5,18.4-22.8,39.4-22.8,39.4s31.9-43.3,55.6-52.6c15.1-5.9,28.1-5.6,39.2,7.6c-3.6,17.4-37.7,57.3-37.7,57.3s15.3-14.9,31.8-29.3c-11.2,18-28.7,38.6-28.7,38.6s60.3-58.7,71.1-55.7c0.6,0.2,1,0.5,1.5,0.9c1.5,16.1-4.6,45.5-4.6,45.5s2.8-6.8,7-15.6c-1.4,12.9-3.9,24.9-3.9,24.9s21.6-51.7,33.5-57c-4.6,29.1-39.7,114.2-39.7,114.2s9.7-17.8,22.3-39.8c-9.7,26.1-19.2,49-19.2,49s65.1-119.4,77.3-122.1c8-1.8,15,10.2,20.6,25.5c7,22.9,11.1,48.7,11.1,48.7s-0.8-6.4-1.8-15.5c3.1,13.9,4.9,24.8,4.9,24.8s-10.2-77,0.8-81.9c18.5-8.4,29.2-2.7,35,10c9.4,39.1-8.7,113.6-8.7,113.6s4.8-11.9,10.4-28.7c-3.3,21.5-7.3,38-7.3,38s39.3-96.7,22.1-129.9c-0.2-1.2-0.5-2.4-0.9-3.6c27,19.2,42.3,43.8,50.7,66.6c9.5,31.6,6.9,57.6,6.9,57.6s1.9-4.2,2.9-13.2c1.1,13.6,0.2,22.5,0.2,22.5s11.9-25.9-9.4-86.9c-5.1-16.2-12.6-35.2-23.7-57.2c29.3,1.4,71.7,76.1,71.7,76.1s-5.8-10.4-12.1-23.9c5.6,8.6,9,14.6,9,14.6s-12.2-21.6-20.1-43.3c-5.3-17.8-6-33.4,7.7-34c31-1.5,48.6,24.5,58.5,51.9c8,26.5,9.5,51.6,9.5,51.6s0.9-0.8,1.8-3.2c1,7.6,1.3,12.5,1.3,12.5s12.4-10.5-9.3-73c-4.9-15.3-12-34.1-22.3-57.3c33.5-18.5,112,105.5,112,105.5s-8.4-14-19-32.8c9.7,13.7,15.9,23.5,15.9,23.5s-44.7-74.7-58.9-111.6c-1.5-5.5-1.6-9.3,0.1-10.5c11.9-8.2,55.1,39.2,55.1,39.2s-6.7-9.3-13.3-19.8c6.1,6,10.2,10.6,10.2,10.6s-15.6-21.5-22.5-36.4c-0.2-2.1,0.1-3.6,1.4-4.3c8.8-4.6,96.3,90.2,96.3,90.2s-13.5-16.2-28.2-35.8c14.3,14.9,25.1,26.6,25.1,26.6s-48.8-58.6-62.1-88.3c-0.5-3-0.2-5.3,1.3-6.5c7.7-6.5,29.6,5,47,16c-10-7.2-21.6-15.9-31-24.1c8.8,3.4,19,9.2,27.9,14.8c-16.6-12-37.5-28.1-45.6-39c0.4-0.7,0.9-1.3,1.8-1.8c23.7-12.3,91.2,29.4,91.2,29.4s-11.5-9.4-21.2-19.5c10.7,5.7,18.1,10.2,18.1,10.2s-22.7-18.7-31.4-31.6c0.1-0.3,0.3-0.6,0.5-0.9c6.7-8.2,86.5,52.6,86.5,52.6s-30.2-23.8-52.1-44.1c23.4,15.4,49,34.9,49,34.9s-55.5-43.8-70.6-63.4c6.4-7.5,55.1,7.7,55.1,7.7s-17.6-8.2-34.7-17.3c15.1,2.8,31.6,8,31.6,8s-43-20-59.9-32.2c10.3-0.2,39.8,12.1,39.8,12.1s-14.2-11.6-30.5-19.1c12.4,3.5,27.4,9.8,27.4,9.8s-16.9-13.9-35.1-21.1c88.4-5,143.2-89.5,143.2-89.5S975.4,338.2,962.7,349.4z M458.1,265.9C458.1,265.9,458.2,265.8,458.1,265.9C458.2,265.8,458.1,265.8,458.1,265.9z M823.6,552.6c12.8,9.2,23.1,16,23.1,16S836.5,560.7,823.6,552.6z M452.4,396.9l-26-32.7c-3.2,4.6-8.5,7.6-14.5,7.6c-2.2,0-4.4-0.4-6.3-1.2c-2.3,3-4.3,6.2-6.3,9.5l51.5,18.9C451.3,398.3,451.8,397.6,452.4,396.9z M422.2,494.3l-11.5,9.3l34.8-44.1l-43.9,15.9c0.1,0.7,0.2,1.4,0.2,2.1c0,6.8-2.9,12.9-7.5,17.1c4.2,8.9,9.3,17.3,15.3,25.2C412.8,510.9,417.1,502.4,422.2,494.3z M384.8,415.6c-2.9,13.1-3.5,26.2-2,39.1c9.6,1.8,17.1,9.5,18.7,19.2l37.9-24.3c-3.6-1.2-7.1-2.6-10.6-4.1l-42.5-3.1l26-5.6c-10.1-6.3-19.2-13.9-27.2-22.7C385,414.6,384.9,415.1,384.8,415.6z M443.2,412.7l-44-32.5c-3.8,6.3-7.1,12.9-9.8,20c4.7,5.1,9.8,9.7,15.1,14l38.5-1.2C443.1,412.9,443.1,412.8,443.2,412.7z M416.1,422.4c-4-2.5-7.8-5.3-11.5-8.2l-18.2,0.6L416.1,422.4z M471.8,480.6l-32.9,46.7l12.2-45.7c-14.3,13.6-25.3,30.4-32.5,48.9c3.9,4.2,8,8.1,12.4,11.8c13.1,3.4,26.9,5.3,41.1,5.3c57.2,0,107.5-29.5,136.5-74.2c-15.3-10.6-32.5-18.1-50.5-21.9l-13.3-1l37.4,36.7l-48.9-19l28.8,44l-43.4-33.6c-0.3,0.2-0.5,0.3-0.8,0.5l14,51.6l-24.3-46.3l-4,54.3l-16.3-53.9c-0.1,0-0.1,0-0.2,0L468,536l4.6-55.1C472.3,480.8,472,480.7,471.8,480.6z"/></g></g>
</svg>