<?xml version="1.0" encoding="utf-8"?>
<!-- Svg Vector Icons : http://www.onlinewebfonts.com/icon -->
<!DOCTYPE svg PUBLIC "-//W3C//DTD SVG 1.1//EN" "http://www.w3.org/Graphics/SVG/1.1/DTD/svg11.dtd">
<svg version="1.1" xmlns="http://www.w3.org/2000/svg" xmlns:xlink="http://www.w3.org/1999/xlink" x="0px" y="0px" viewBox="0 0 1000 1000" enable-background="new 0 0 1000 1000" xml:space="preserve">
<metadata> Svg Vector Icons : http://www.onlinewebfonts.com/icon </metadata>
<g><path d="M504.9,990L504.9,990c-113.9,0-224.1-7.8-302.1-21.5C80.4,947.1,51.5,918.3,30.6,797.7c-27.8-160.6-27.4-433,0.9-594.9C52.9,80.6,81.6,51.6,202.2,30.6C278.8,17.4,383,10,495.7,10c113.7,0,223.6,7.8,301.5,21.4c122.3,21.4,151.2,50.1,172.2,170.8c27.8,160.6,27.5,433.1-0.9,595c-21.3,122.3-50.1,151.2-170.7,172.2C721.3,982.7,617.3,990,504.9,990L504.9,990z M495.7,40.2c-111,0-213.5,7.2-288.4,20.2C99.5,79.1,80.3,98.4,61.2,208c-27.8,159.1-28.2,426.8-0.9,584.6c18.7,107.9,38,127,147.7,146.2c76.4,13.3,184.6,21,296.9,21l0,0c110.8,0,213-7.1,287.7-20.1C900.5,921,919.7,901.6,938.8,792c27.8-159.1,28.2-426.9,0.9-584.7C920.9,99.5,901.6,80.3,792,61.1C715.8,47.8,607.8,40.1,495.7,40.2L495.7,40.2z M576.8,604.6c-9.6,0-17.4,7.3-17.4,16.3c0,9,7.8,16.4,17.4,16.4c9.5,0,17.4-7.3,17.4-16.4C594.2,611.9,586.4,604.6,576.8,604.6z M684,378.9c-6.7,0-13.6,0.3-20.7,1c-1.8-6.6-35.2-132.7-172.3-132.7c-9.8,0-20,0.7-30.9,2.1c-162.8,21.7-143,161.2-142,168.5c-0.2,0-3.3-0.2-8.9-0.2c-31.8,0-139,7.9-158.7,113c-24.8,132.9,113.3,182.9,164.1,182.9h349.8c5.8,0,115.2-0.5,167.2-102.4C881.2,513.8,822.7,378.9,684,378.9L684,378.9z M630.4,632.7c0,12.5-13.4,20.1-26.7,20.1H369.4c-13.3,0-19.9-7.7-19.9-20.1v-25.1c0-12.5,6.6-18.4,19.9-18.4h234.3c13.3,0,26.7,5.9,26.7,18.4V632.7z M630.4,554.7c0,12.5-13.4,20.1-26.7,20.1H369.4c-13.3,0-19.9-7.7-19.9-20.1v-25.1c0-12.5,6.6-18.4,19.9-18.4h234.3c13.3,0,26.7,5.9,26.7,18.4V554.7z M630.4,480.8c0,12.5-13.4,15.9-26.7,15.9H369.4c-13.3,0-19.9-3.4-19.9-15.9v-24.5c0-12.5,6.6-22.7,19.9-22.7h234.3c13.3,0,26.7,10.2,26.7,22.7V480.8z M576.8,452.5c-9.6,0-17.4,6.8-17.4,15.8c0,9,7.8,16.4,17.4,16.4c9.5,0,17.4-7.3,17.4-16.4C594.2,459.2,586.4,452.5,576.8,452.5z"/></g>
</svg>