<svg height="464pt" viewBox="0 -11 464 463" width="464pt" xmlns="http://www.w3.org/2000/svg"><path d="m256 264.5h176v-128h-176zm120-112h16v72c0 4.417969 3.582031 8 8 8s8-3.582031 8-8v-72h16v72c0 13.253906-10.746094 24-24 24s-24-10.746094-24-24zm-56 8c0-4.417969 3.582031-8 8-8h32c4.417969 0 8 3.582031 8 8v40c0 4.417969-3.582031 8-8 8h-24v40h-16zm-56 16c0-13.253906 10.746094-24 24-24h24v16h-24c-4.417969 0-8 3.582031-8 8v48c0 4.417969 3.582031 8 8 8h8v-24h-8v-16h16c4.417969 0 8 3.582031 8 8v48h-24c-13.253906 0-24-10.746094-24-24zm0 0"/><path d="m336 168.5h16v24h-16zm0 0"/><path d="m88 304.5h64v-32h-64zm16-24h32v16h-32zm0 0"/><path d="m88 216.5h64v-32h-64zm16-24h32v16h-32zm0 0"/><path d="m88 128.5h64v-32h-64zm16-24h32v16h-32zm0 0"/><path d="m456 64.5h-400v272h400c4.417969 0 8-3.582031 8-8v-256c0-4.417969-3.582031-8-8-8zm-288 248c0 4.417969-3.582031 8-8 8h-80c-4.417969 0-8-3.582031-8-8v-48c0-4.417969 3.582031-8 8-8h80c4.417969 0 8 3.582031 8 8zm0-88c0 4.417969-3.582031 8-8 8h-80c-4.417969 0-8-3.582031-8-8v-48c0-4.417969 3.582031-8 8-8h80c4.417969 0 8 3.582031 8 8zm0-88c0 4.417969-3.582031 8-8 8h-80c-4.417969 0-8-3.582031-8-8v-48c0-4.417969 3.582031-8 8-8h80c4.417969 0 8 3.582031 8 8zm24 176h-16v-32h16zm0-48h-16v-32h16zm0-48h-16v-32h16zm0-48h-16v-32h16zm0-48h-16v-32h16zm24 200h-16v-16h16zm0-32h-16v-16h16zm0-32h-16v-16h16zm0-32h-16v-16h16zm0-32h-16v-16h16zm0-32h-16v-16h16zm0-32h-16v-16h16zm0-32h-16v-16h16zm232 176c0 4.417969-3.582031 8-8 8h-192c-4.417969 0-8-3.582031-8-8v-144c0-4.417969 3.582031-8 8-8h192c4.417969 0 8 3.582031 8 8zm0 0"/><path d="m40 48.5h16v-40c0-4.417969-3.582031-8-8-8h-48v16h40zm0 0"/><path d="m40 352.5h16v88h-16zm0 0"/><path d="m24 176.5h16v48h-16zm0 0"/><path d="m24 88.5h16v48h-16zm0 0"/></svg>