<?xml version="1.0" encoding="UTF-8"?>
<svg xmlns="http://www.w3.org/2000/svg" viewBox="0 0 512 512" width="512" height="512"><g id="Outline"><path d="M336,320h98.28a15.953,15.953,0,0,0,15.92-14.408l2.639-26.388L468.76,280.8l-2.639,26.39A31.9,31.9,0,0,1,434.28,336H336ZM488,176h-8.76l-8.88,88.8L454.439,263.2,463.16,176H240V160H480V144H208v16h8a8,8,0,0,1,7.96,7.2l4.8,48L212.841,216.8,208.76,176H200a8,8,0,0,1-8-8V136a8,8,0,0,1,8-8h91.251l43.391-79.55A11.124,11.124,0,0,0,324.876,32H323.45a11.106,11.106,0,0,0-9.805,5.871l-42.593,79.5-14.1-7.556,42.593-79.5A27.081,27.081,0,0,1,323.45,16h1.426A27.037,27.037,0,0,1,344,23.909,27.037,27.037,0,0,1,363.124,16h1.426a27.081,27.081,0,0,1,23.909,14.315L440.792,128H488a8,8,0,0,1,8,8v32A8,8,0,0,1,488,176ZM378.524,128,344,64.706,309.476,128Zm44.117,0L374.355,37.871A11.106,11.106,0,0,0,364.55,32h-1.426a11.123,11.123,0,0,0-9.766,16.449L396.749,128ZM272,208V192H256v16Zm32,32V192H288v48Zm-16,56h16V280H288Zm32-56h16V192H320Zm0,64h16V256H320Zm48-112H352v48h16ZM352,304h16V256H352Zm48-112H384v48h16ZM384,304h16V256H384Zm48-112H416v48h16ZM416,304h16V256H416ZM32,376l20.326.006a119.1,119.1,0,0,0,11.256,27.157L49.206,417.54a16.018,16.018,0,0,0,0,22.627l22.627,22.627a16.02,16.02,0,0,0,22.628,0l14.31-14.408A119.445,119.445,0,0,0,136,459.675V480a16.019,16.019,0,0,0,16,16h32a16.019,16.019,0,0,0,16-16l.006-20.327a119.057,119.057,0,0,0,27.157-11.255l14.377,14.376a16.017,16.017,0,0,0,22.627,0l22.627-22.627a16.02,16.02,0,0,0,0-22.628l-14.408-14.31A119.474,119.474,0,0,0,283.676,376H304a16.019,16.019,0,0,0,16-16V328a16.019,16.019,0,0,0-16-16l-20.326-.006a119.086,119.086,0,0,0-11.256-27.158l14.376-14.376a16.018,16.018,0,0,0,0-22.627l-22.627-22.627a16.02,16.02,0,0,0-22.628,0l-14.31,14.408A119.482,119.482,0,0,0,200,228.324V208a16.019,16.019,0,0,0-16-16H152a16.019,16.019,0,0,0-16,16l-.006,20.326a119.112,119.112,0,0,0-27.157,11.256L94.46,225.206a16.017,16.017,0,0,0-22.627,0L49.206,247.833a16.02,16.02,0,0,0,0,22.628l14.409,14.31c-1.441,2.533-2.807,5.157-4.061,7.8l14.454,6.862c1.086-2.287,2.269-4.559,3.517-6.754A15.994,15.994,0,0,0,74.9,273.523L60.52,259.147,83.147,236.52,97.523,250.9a15.989,15.989,0,0,0,19.155,2.629,103.418,103.418,0,0,1,23.649-9.795A15.985,15.985,0,0,0,152,228.328V208h32v20.328a15.985,15.985,0,0,0,11.673,15.4,103.4,103.4,0,0,1,23.65,9.8,15.992,15.992,0,0,0,19.154-2.629l14.376-14.376,22.627,22.627L261.1,273.523a15.993,15.993,0,0,0-2.628,19.155,103.448,103.448,0,0,1,9.8,23.648A15.984,15.984,0,0,0,283.672,328H304v32H283.672a15.985,15.985,0,0,0-15.4,11.673,103.377,103.377,0,0,1-9.8,23.65,15.993,15.993,0,0,0,2.629,19.154l14.376,14.376L252.853,451.48,238.477,437.1a16,16,0,0,0-19.155-2.628,103.426,103.426,0,0,1-23.65,9.8A15.986,15.986,0,0,0,184,459.672V480H152V459.672a15.986,15.986,0,0,0-11.673-15.4,103.421,103.421,0,0,1-23.65-9.8A16,16,0,0,0,97.523,437.1L83.147,451.48,60.52,428.853,74.9,414.477a15.992,15.992,0,0,0,2.629-19.155,103.392,103.392,0,0,1-9.8-23.649A15.985,15.985,0,0,0,52.328,360H32V328H52.328a15.984,15.984,0,0,0,15.4-11.674L52.3,312.082c.011-.043.039-.08.026-.082H32a16.019,16.019,0,0,0-16,16v32A16.019,16.019,0,0,0,32,376Zm136-80a48,48,0,1,1-48,48A48.055,48.055,0,0,1,168,296Zm0,16a32,32,0,1,0,32,32A32.036,32.036,0,0,0,168,312ZM152,64H136V80h16Zm0,32H136v16h16Zm0,32H136v16h16Zm0,32H136v16h16Zm32-96H168V80h16Zm16,16h16V64H200Zm32,0h16V64H232ZM408,432h16V416H408Zm16-48H408v16h16Zm0-32H408v16h16Zm-32,80V416H376v16Zm-32,0V416H344v16Zm-48,0h16V416H312ZM105.775,281.775A88.019,88.019,0,0,0,216.542,417.419l-8.837-13.337a72.009,72.009,0,0,1-90.617-110.994Zm124.45,124.45A88.008,88.008,0,0,0,119.458,270.581l8.837,13.337a72.009,72.009,0,0,1,90.617,110.994Z"/></g></svg>
