<?xml version="1.0" standalone="no"?>
<!DOCTYPE svg PUBLIC "-//W3C//DTD SVG 20010904//EN"
 "http://www.w3.org/TR/2001/REC-SVG-20010904/DTD/svg10.dtd">
<svg version="1.0" xmlns="http://www.w3.org/2000/svg"
 width="790.000000pt" height="980.000000pt" viewBox="0 0 790.000000 980.000000"
 preserveAspectRatio="xMidYMid meet">
<metadata>
Created by potrace 1.16, written by Peter Selinger 2001-2019
</metadata>
<g transform="translate(0.000000,980.000000) scale(0.100000,-0.100000)"
fill="#000000" stroke="none">
<path d="M2580 9209 c-552 -324 -1006 -591 -1007 -593 -6 -5 1094 -254 1777
-402 550 -119 1063 -225 1067 -220 2 2 -75 155 -172 339 -215 410 -339 684
-600 1322 -31 77 -58 141 -59 142 -1 1 -454 -263 -1006 -588z"/>
<path d="M1687 8197 c436 -473 560 -612 655 -741 106 -143 199 -313 273 -500
l31 -79 195 -33 c354 -59 795 -156 1103 -243 59 -17 113 -28 119 -24 15 9 261
387 364 558 115 192 267 465 261 470 -2 2 -172 38 -378 79 -789 157 -2012 422
-2574 556 -44 11 -87 20 -94 20 -8 0 13 -28 45 -63z"/>
<path d="M4995 7353 c-115 -214 -279 -489 -429 -721 -65 -100 -117 -184 -115
-186 2 -1 74 -26 159 -56 198 -67 455 -166 643 -245 l148 -63 102 121 c293
347 763 985 741 1007 -13 11 -255 92 -404 134 -232 65 -700 176 -739 176 -10
0 -48 -60 -106 -167z"/>
<path d="M6515 6903 c-177 -266 -398 -561 -633 -846 -63 -76 -113 -140 -111
-141 2 -2 65 -34 139 -71 162 -81 351 -182 515 -276 l121 -68 184 50 c102 28
401 109 665 180 264 72 484 134 489 139 5 5 -24 50 -68 107 -277 353 -590 667
-866 872 -69 51 -315 201 -330 201 -4 0 -51 -66 -105 -147z"/>
<path d="M2754 6421 c4 -25 9 -127 12 -226 7 -208 -8 -354 -55 -537 -105 -402
-296 -659 -1120 -1500 -101 -103 -181 -188 -177 -188 4 0 44 26 89 57 312 218
640 474 932 728 213 186 738 710 917 915 219 252 465 556 457 565 -18 17 -655
161 -928 209 l-133 24 6 -47z"/>
<path d="M4086 5957 c-282 -368 -547 -669 -901 -1023 -268 -268 -447 -432
-703 -645 -81 -67 -154 -129 -162 -137 -19 -19 -24 -21 150 56 258 113 645
255 1179 433 382 127 338 103 621 340 226 189 483 425 689 633 l165 165 -66
30 c-117 52 -406 161 -630 236 l-217 74 -125 -162z"/>
<path d="M5345 5457 c-82 -87 -205 -211 -272 -275 -68 -64 -121 -117 -119
-119 2 -2 140 37 307 86 167 49 399 114 514 146 116 31 213 60 218 64 6 7
-412 227 -473 249 -23 8 -36 -3 -175 -151z"/>
<path d="M5180 4798 c-69 -22 -280 -88 -470 -148 -796 -252 -1668 -556 -2061
-721 -140 -58 -605 -267 -999 -449 -662 -305 -847 -394 -880 -424 -66 -59
-203 -209 -287 -315 -397 -497 -557 -965 -443 -1296 37 -108 228 -335 409
-487 202 -169 525 -356 801 -463 612 -239 1379 -369 2800 -475 146 -11 271
-20 278 -20 14 0 132 237 294 590 363 788 613 1770 702 2755 49 542 44 1479
-9 1491 -5 1 -66 -16 -135 -38z"/>
</g>
</svg>
