<?xml version="1.0" encoding="iso-8859-1"?>
<!-- Generator: Adobe Illustrator 19.0.0, SVG Export Plug-In . SVG Version: 6.00 Build 0)  -->
<svg version="1.1" id="Layer_1" xmlns="http://www.w3.org/2000/svg" xmlns:xlink="http://www.w3.org/1999/xlink" x="0px" y="0px"
	 viewBox="0 0 512 512" style="enable-background:new 0 0 512 512;" xml:space="preserve">
<g>
	<g>
		<path d="M456.348,100.174h-89.044V50.087C367.304,22.469,344.835,0,317.217,0H194.783c-27.618,0-50.087,22.469-50.087,50.087
			v50.087H55.652C24.966,100.174,0,125.139,0,155.826v94.609v172.522C0,472.055,39.945,512,89.044,512c15.304,0,309.552,0,333.913,0
			C472.055,512,512,472.055,512,422.957V250.435v-94.609C512,125.139,487.034,100.174,456.348,100.174z M178.087,50.087
			c0-9.206,7.49-16.696,16.696-16.696h122.435c9.206,0,16.696,7.49,16.696,16.696v50.087H178.087V50.087z M89.044,478.609
			c-30.687,0-55.652-24.966-55.652-55.652v-22.261c42.961,0,77.913,34.951,77.913,77.913H89.044z M478.609,422.957
			c0,30.687-24.966,55.652-55.652,55.652h-22.261c0-42.962,34.952-77.913,77.913-77.913V422.957z M478.609,367.304
			c-61.373,0-111.304,49.93-111.304,111.304H144.696c0-61.374-49.931-111.304-111.304-111.304v-62.369
			c8.356,4.283,17.809,6.717,27.826,6.717h144.696v11.13c0,27.618,22.469,50.087,50.087,50.087
			c27.618,0,50.087-22.469,50.087-50.087v-11.13h144.696c10.017,0,19.471-2.434,27.826-6.717V367.304z M239.304,322.783v-50.087
			h33.391v50.087c0,9.206-7.49,16.696-16.696,16.696C246.794,339.478,239.304,331.989,239.304,322.783z M478.609,250.435
			c0,15.343-12.483,27.826-27.826,27.826H306.087V256c0-9.22-7.475-16.696-16.696-16.696h-66.783
			c-9.22,0-16.696,7.475-16.696,16.696v22.261H61.217c-15.343,0-27.826-12.483-27.826-27.826v-94.609
			c0-12.275,9.986-22.261,22.261-22.261c6.37,0,390.773,0,400.696,0c12.275,0,22.261,9.986,22.261,22.261V250.435z"/>
	</g>
</g>
<g>
</g>
<g>
</g>
<g>
</g>
<g>
</g>
<g>
</g>
<g>
</g>
<g>
</g>
<g>
</g>
<g>
</g>
<g>
</g>
<g>
</g>
<g>
</g>
<g>
</g>
<g>
</g>
<g>
</g>
</svg>
