<?xml version="1.0" encoding="utf-8"?>
<!-- Svg Vector Icons : http://www.onlinewebfonts.com/icon -->
<!DOCTYPE svg PUBLIC "-//W3C//DTD SVG 1.1//EN" "http://www.w3.org/Graphics/SVG/1.1/DTD/svg11.dtd">
<svg version="1.1" xmlns="http://www.w3.org/2000/svg" xmlns:xlink="http://www.w3.org/1999/xlink" x="0px" y="0px" viewBox="0 0 1000 1000" enable-background="new 0 0 1000 1000" xml:space="preserve">
<metadata> Svg Vector Icons : http://www.onlinewebfonts.com/icon </metadata>
<g><path d="M500,10C268.4,10,80.6,114,80.6,242.2v515.5C80.6,886,268.4,990,500,990s419.4-104,419.4-232.2V242.2C919.4,114,731.6,10,500,10z M490.6,852.5C273,852.5,184.5,742.4,184.5,711c21.7,59.8,150.3,105.8,306.1,105.8c155.8,0,284.4-46,306.1-105.8C796.7,740.4,708.1,852.5,490.6,852.5z M513.7,693.5c-217.6,0-306.1-110.2-306.1-141.5c21.7,59.8,150.3,105.8,306.1,105.8c155.8,0,284.4-46,306.1-105.8C819.8,581.4,731.3,693.5,513.7,693.5z M499.3,429.9c-205.6,0-372.2-84.9-372.2-189.6c0-104.7,166.7-189.6,372.2-189.6c205.6,0,372.2,84.9,372.2,189.6S704.9,429.9,499.3,429.9z"/></g>
</svg>