<?xml version="1.0" encoding="iso-8859-1"?>
<!-- Generator: Adobe Illustrator 19.0.0, SVG Export Plug-In . SVG Version: 6.00 Build 0)  -->
<svg version="1.1" id="Layer_1" xmlns="http://www.w3.org/2000/svg" xmlns:xlink="http://www.w3.org/1999/xlink" x="0px" y="0px"
	 viewBox="0 0 512 512" style="enable-background:new 0 0 512 512;" xml:space="preserve">
<circle style="fill:#00BAFF;" cx="256" cy="256" r="256"/>
<path style="fill:#009EDA;" d="M505.022,315.547L367.282,177.806c0.87,0.871-153.078,164.398-153.078,164.398l-0.505-0.505
	c-22.503,19.676-68.194,59.541-68.981,59.541l110.753,110.753c0.177,0,0.352,0.006,0.529,0.006
	C376.882,512,478.18,428.211,505.022,315.547z"/>
<polygon style="fill:#FAE3C2;" points="300.234,110.759 144.718,110.759 144.718,401.241 367.282,401.241 367.282,177.807 "/>
<polygon style="fill:#FFD8B1;" points="367.282,177.807 300.234,110.759 255.652,110.759 255.652,401.241 367.282,401.241 "/>
<circle style="fill:#5ADFA8;" cx="256" cy="256" r="56.421"/>
<path style="fill:#45BF88;" d="M255.997,199.579c-0.116,0-0.23,0.008-0.345,0.008v112.825c0.116,0.001,0.229,0.008,0.345,0.008
	c31.161,0,56.421-25.26,56.421-56.421S287.157,199.579,255.997,199.579z"/>
<polygon style="fill:#009983;" points="243.461,286.719 222.616,265.874 232.96,255.53 243.461,266.032 279.04,230.452 
	289.384,240.797 "/>
<polygon style="fill:#007F6A;" points="279.04,230.452 255.652,253.841 255.652,274.529 289.384,240.797 "/>
<polygon style="fill:#F8BE94;" points="300.234,177.806 367.282,177.806 300.234,110.759 "/>
<g>
</g>
<g>
</g>
<g>
</g>
<g>
</g>
<g>
</g>
<g>
</g>
<g>
</g>
<g>
</g>
<g>
</g>
<g>
</g>
<g>
</g>
<g>
</g>
<g>
</g>
<g>
</g>
<g>
</g>
</svg>
